<svg id="svg" version="1.1" xmlns="http://www.w3.org/2000/svg" xmlns:xlink="http://www.w3.org/1999/xlink" width="400" height="400" viewBox="0, 0, 400,400"><g id="svgg"><path id="path0" d="M105.442 77.593 C 100.223 79.255,99.014 87.969,103.570 91.080 C 105.472 92.379,108.037 92.647,110.296 91.785 C 111.622 91.278,112.202 91.207,112.312 91.537 C 112.741 92.824,113.200 91.703,113.200 89.367 C 113.200 86.480,112.454 85.921,111.942 88.424 C 111.373 91.203,108.208 92.527,106.496 90.700 C 103.991 88.025,104.209 79.787,106.822 78.388 C 108.739 77.363,111.328 78.639,111.913 80.898 C 112.501 83.164,113.200 82.693,113.200 80.033 C 113.200 77.819,112.740 76.846,112.286 78.100 C 112.142 78.496,111.922 78.492,111.222 78.078 C 110.064 77.392,106.904 77.127,105.442 77.593 M119.442 77.592 C 114.222 79.259,113.014 87.969,117.570 91.080 C 121.403 93.697,127.007 92.027,128.627 87.785 C 131.027 81.500,125.704 75.592,119.442 77.592 M131.100 78.088 C 132.492 78.760,132.502 90.403,131.111 91.377 C 130.265 91.970,130.338 91.999,132.611 91.973 C 134.639 91.950,134.863 91.880,134.091 91.508 C 132.880 90.924,132.748 90.194,132.884 84.852 L 133.000 80.304 135.400 86.151 C 138.041 92.587,138.327 92.874,139.326 90.100 C 139.702 89.055,140.718 86.400,141.584 84.200 L 143.158 80.200 143.179 85.300 C 143.198 89.883,143.119 90.481,142.400 91.200 L 141.600 92.000 144.800 92.000 L 148.000 92.000 147.200 91.200 C 145.971 89.971,145.987 79.613,147.220 78.380 L 148.039 77.561 145.525 77.680 L 143.011 77.800 141.453 82.100 C 139.547 87.360,139.702 87.364,137.600 82.000 L 135.876 77.600 133.038 77.627 C 130.699 77.649,130.358 77.731,131.100 78.088 M149.500 78.088 C 150.906 78.766,150.906 90.834,149.500 91.512 C 148.786 91.856,149.384 91.945,152.400 91.941 C 155.412 91.938,155.972 91.853,155.100 91.535 C 154.059 91.155,154.000 90.998,154.000 88.616 L 154.000 86.099 156.267 85.911 C 159.077 85.678,160.800 84.103,160.800 81.767 C 160.800 78.419,159.263 77.590,153.120 77.627 C 149.570 77.648,148.793 77.747,149.500 78.088 M164.648 83.681 C 163.374 87.047,161.981 90.295,161.553 90.900 L 160.776 92.000 163.088 91.984 C 165.366 91.968,165.384 91.959,164.300 91.371 C 163.010 90.671,163.013 90.691,163.838 88.271 L 164.475 86.400 166.401 86.400 L 168.327 86.400 169.123 88.757 L 169.919 91.114 169.059 91.530 C 168.388 91.855,168.937 91.952,171.562 91.973 C 174.730 91.998,174.889 91.960,174.315 91.300 C 173.980 90.915,172.618 87.720,171.288 84.200 C 167.958 75.386,167.794 75.374,164.648 83.681 M175.900 78.088 C 177.306 78.766,177.306 90.834,175.900 91.512 C 175.181 91.858,175.725 91.946,178.600 91.948 C 181.142 91.949,181.935 91.843,181.300 91.588 C 180.310 91.189,179.866 85.200,180.826 85.200 C 182.102 85.200,182.728 86.099,183.202 88.612 C 183.784 91.693,184.751 92.645,186.899 92.254 C 187.615 92.124,190.855 92.020,194.100 92.025 L 200.000 92.033 199.968 89.516 L 199.937 87.000 199.330 88.716 C 198.581 90.833,197.357 91.693,195.331 91.526 L 193.800 91.400 193.684 88.100 C 193.543 84.098,195.616 83.264,196.916 86.800 C 197.038 87.130,197.150 86.140,197.167 84.600 L 197.197 81.800 196.404 83.100 C 194.772 85.777,193.545 84.965,193.683 81.300 L 193.800 78.200 195.331 78.074 C 197.255 77.916,198.536 78.730,199.091 80.465 C 199.513 81.784,199.519 81.775,199.559 79.700 L 199.600 77.600 194.100 77.616 C 188.995 77.631,188.679 77.675,189.700 78.229 L 190.800 78.826 190.800 84.799 C 190.800 90.279,190.737 90.806,190.032 91.183 C 189.473 91.482,189.219 91.459,189.097 91.097 C 188.966 90.708,188.792 90.714,188.291 91.127 C 187.636 91.668,186.808 89.852,186.802 87.860 C 186.801 87.454,186.241 86.599,185.558 85.960 C 184.874 85.322,184.523 84.800,184.776 84.800 C 187.693 84.800,188.011 79.040,185.149 78.042 C 183.414 77.437,174.641 77.481,175.900 78.088 M123.798 79.036 C 125.190 80.538,125.818 83.967,125.257 86.996 C 123.931 94.151,118.436 92.517,118.409 84.960 C 118.389 79.381,121.227 76.261,123.798 79.036 M156.400 78.800 C 158.219 80.619,157.036 85.600,154.784 85.600 C 153.990 85.600,153.525 79.008,154.267 78.267 C 154.753 77.780,155.590 77.990,156.400 78.800 M182.800 78.800 C 184.557 80.557,183.425 84.800,181.200 84.800 C 180.468 84.800,180.400 84.533,180.400 81.667 C 180.400 77.746,181.013 77.013,182.800 78.800 M167.770 85.100 C 168.033 85.934,167.933 86.000,166.400 86.000 C 164.568 86.000,164.559 85.940,165.889 82.800 L 166.482 81.400 166.984 82.800 C 167.260 83.570,167.614 84.605,167.770 85.100 M100.110 154.880 C 100.255 212.310,100.203 210.581,102.057 220.000 C 109.670 258.697,141.303 290.330,180.000 297.943 C 189.338 299.781,187.784 299.734,245.120 299.889 L 300.039 300.037 299.888 245.118 C 299.730 187.821,299.774 189.306,297.943 180.000 C 290.330 141.303,258.697 109.670,220.000 102.057 C 210.694 100.226,212.179 100.270,154.885 100.112 L 99.970 99.961 100.110 154.880 M169.400 104.481 C 152.816 110.250,140.648 117.726,129.187 129.187 C 117.703 140.671,110.261 152.783,104.481 169.400 C 104.184 170.253,104.054 160.964,104.032 137.300 L 104.000 104.000 137.300 104.032 C 160.964 104.054,170.253 104.184,169.400 104.481 M214.000 105.004 C 288.677 116.351,321.806 205.196,272.639 262.257 C 224.606 318.000,134.949 301.683,109.685 232.600 C 85.144 165.493,143.371 94.271,214.000 105.004 M190.000 155.211 C 174.917 157.308,171.180 170.760,179.775 192.023 C 179.964 192.492,179.116 193.148,176.313 194.696 C 159.146 204.180,153.669 216.801,160.732 230.600 C 168.159 245.111,187.760 249.036,204.518 239.367 L 207.636 237.568 209.318 239.012 C 217.536 246.064,229.203 246.301,236.568 239.566 C 240.785 235.709,242.127 233.726,241.296 232.582 C 240.358 231.292,240.329 231.301,237.488 233.709 C 230.342 239.766,220.645 239.811,213.903 233.819 L 212.807 232.844 214.917 230.038 C 219.495 223.953,223.448 216.017,225.196 209.400 C 228.135 198.278,229.149 196.948,235.491 195.898 C 237.988 195.484,238.000 195.475,238.000 194.141 L 238.000 192.800 225.000 192.800 L 212.000 192.800 212.000 194.162 C 212.000 195.505,212.031 195.529,214.100 195.796 C 221.366 196.733,223.527 201.556,220.194 209.400 C 219.914 210.060,219.084 212.390,218.350 214.577 C 216.696 219.509,211.187 229.200,210.038 229.200 C 207.493 229.200,186.927 194.775,188.407 192.992 C 188.637 192.715,190.574 191.640,192.712 190.603 C 202.184 186.011,206.397 182.740,208.601 178.269 C 214.936 165.418,205.018 153.123,190.000 155.211 M197.282 159.022 C 205.681 161.884,207.612 174.388,200.719 181.281 C 197.742 184.258,190.905 188.249,187.373 189.073 C 185.865 189.424,182.795 177.888,182.670 171.393 C 182.499 162.562,189.723 156.446,197.282 159.022 M185.156 203.066 C 191.384 215.710,195.348 222.225,201.966 230.694 L 205.164 234.787 203.482 235.772 C 182.561 248.025,157.637 227.676,168.081 206.869 C 170.016 203.013,180.271 194.537,181.506 195.772 C 181.568 195.834,183.210 199.116,185.156 203.066 M296.000 262.800 L 296.000 296.000 262.700 295.968 C 239.036 295.946,229.747 295.816,230.600 295.519 C 257.831 286.046,277.763 268.784,289.999 244.075 C 292.154 239.723,294.773 233.250,295.412 230.700 C 295.563 230.095,295.757 229.600,295.843 229.600 C 295.930 229.600,296.000 244.540,296.000 262.800 M217.842 308.793 C 212.623 310.455,211.414 319.169,215.970 322.280 C 217.872 323.579,220.437 323.847,222.696 322.985 C 224.022 322.478,224.602 322.407,224.712 322.737 C 225.141 324.024,225.600 322.903,225.600 320.567 C 225.600 317.680,224.854 317.121,224.342 319.624 C 223.773 322.403,220.608 323.727,218.896 321.900 C 216.391 319.225,216.609 310.987,219.222 309.588 C 221.139 308.563,223.728 309.839,224.313 312.098 C 224.901 314.364,225.600 313.893,225.600 311.233 C 225.600 309.019,225.140 308.046,224.686 309.300 C 224.542 309.696,224.322 309.692,223.622 309.278 C 222.464 308.592,219.304 308.327,217.842 308.793 M231.842 308.792 C 226.622 310.459,225.414 319.169,229.970 322.280 C 233.803 324.897,239.407 323.227,241.027 318.985 C 243.427 312.700,238.104 306.792,231.842 308.792 M243.500 309.288 C 244.892 309.960,244.902 321.603,243.511 322.577 C 242.665 323.170,242.738 323.199,245.011 323.173 C 247.039 323.150,247.263 323.080,246.491 322.708 C 245.280 322.124,245.148 321.394,245.284 316.052 L 245.400 311.504 247.800 317.351 C 250.441 323.787,250.727 324.074,251.726 321.300 C 252.102 320.255,253.118 317.600,253.984 315.400 L 255.558 311.400 255.579 316.500 C 255.598 321.083,255.519 321.681,254.800 322.400 L 254.000 323.200 257.200 323.200 L 260.400 323.200 259.600 322.400 C 258.371 321.171,258.387 310.813,259.620 309.580 L 260.439 308.761 257.925 308.880 L 255.411 309.000 253.853 313.300 C 251.947 318.560,252.102 318.564,250.000 313.200 L 248.276 308.800 245.438 308.827 C 243.099 308.849,242.758 308.931,243.500 309.288 M261.900 309.288 C 263.292 309.960,263.302 321.603,261.911 322.577 C 261.065 323.170,261.138 323.199,263.411 323.173 C 265.439 323.150,265.663 323.080,264.891 322.708 C 263.680 322.124,263.548 321.394,263.684 316.052 L 263.800 311.504 266.200 317.351 C 268.841 323.787,269.127 324.074,270.126 321.300 C 270.502 320.255,271.518 317.600,272.384 315.400 L 273.958 311.400 273.979 316.500 C 273.998 321.083,273.919 321.681,273.200 322.400 L 272.400 323.200 275.600 323.200 L 278.800 323.200 278.000 322.400 C 276.771 321.171,276.787 310.813,278.020 309.580 L 278.839 308.761 276.325 308.880 L 273.811 309.000 272.253 313.300 C 270.347 318.560,270.502 318.564,268.400 313.200 L 266.676 308.800 263.838 308.827 C 261.499 308.849,261.158 308.931,261.900 309.288 M280.300 309.288 C 281.177 309.711,281.200 309.885,281.200 316.000 C 281.200 322.115,281.177 322.289,280.300 322.712 C 279.581 323.058,280.125 323.146,283.000 323.148 C 285.542 323.149,286.335 323.043,285.700 322.788 C 284.819 322.433,284.800 322.290,284.800 316.000 C 284.800 309.710,284.819 309.567,285.700 309.212 C 286.335 308.957,285.542 308.851,283.000 308.852 C 280.125 308.854,279.581 308.942,280.300 309.288 M287.200 311.400 C 287.200 314.322,287.755 314.797,288.394 312.421 C 288.778 310.996,290.372 309.200,291.254 309.200 C 291.444 309.200,291.600 312.155,291.600 315.767 L 291.600 322.333 290.500 322.735 C 289.630 323.053,290.237 323.142,293.400 323.163 C 296.874 323.185,297.268 323.122,296.400 322.683 C 295.402 322.178,295.400 322.162,295.290 315.659 L 295.180 309.140 296.090 309.405 C 297.354 309.773,298.328 311.008,298.632 312.629 C 299.039 314.801,299.520 314.230,299.666 311.399 L 299.800 308.798 293.500 308.799 L 287.200 308.800 287.200 311.400 M236.198 310.236 C 237.590 311.738,238.218 315.167,237.657 318.196 C 236.331 325.351,230.836 323.717,230.809 316.160 C 230.789 310.581,233.627 307.461,236.198 310.236 " stroke="none" fill="#000000" fill-rule="evenodd"></path></g></svg>