<svg id="svg" version="1.1" xmlns="http://www.w3.org/2000/svg" xmlns:xlink="http://www.w3.org/1999/xlink" width="400" height="400" viewBox="0, 0, 400,400"><g id="svgg"><path id="path0" d="M23.721 116.300 C 23.873 218.184,23.792 213.407,25.559 224.800 C 27.248 235.694,29.039 243.006,32.837 254.516 C 35.834 263.597,42.850 279.260,46.538 285.102 C 47.122 286.027,47.600 286.874,47.600 286.983 C 47.600 287.225,53.767 296.923,54.987 298.600 C 63.020 309.640,68.108 315.710,75.607 323.198 C 96.118 343.679,126.520 361.755,151.000 368.025 C 151.660 368.194,154.270 368.876,156.800 369.540 C 174.104 374.081,198.020 376.341,212.579 374.809 C 214.858 374.570,216.326 374.573,216.621 374.817 C 216.915 375.061,246.606 375.165,297.842 375.101 L 378.600 375.000 378.707 295.200 C 378.785 236.333,378.695 215.174,378.360 214.539 C 378.023 213.899,378.021 212.190,378.353 207.881 C 379.046 198.893,378.622 184.620,377.419 176.400 C 377.306 175.630,376.935 173.020,376.594 170.600 C 375.978 166.225,375.727 164.789,374.773 160.200 C 373.888 155.940,372.071 149.089,370.578 144.386 C 369.777 141.864,368.983 139.350,368.814 138.800 C 366.708 131.964,359.915 117.362,354.207 107.400 C 335.009 73.897,299.586 44.260,262.800 30.922 C 238.952 22.275,210.510 18.249,188.400 20.390 C 186.022 20.620,184.458 20.616,184.220 20.379 C 183.983 20.143,153.609 20.000,103.709 20.000 L 23.577 20.000 23.721 116.300 M145.000 28.956 C 98.086 44.453,59.496 79.483,38.678 125.467 C 35.989 131.406,31.207 144.483,31.194 145.932 C 31.189 146.509,31.135 146.519,30.800 146.000 C 30.554 145.620,30.410 123.765,30.406 86.300 L 30.400 27.200 90.300 27.219 L 150.200 27.238 145.000 28.956 M220.000 27.979 C 221.650 28.220,224.260 28.602,225.800 28.827 C 323.866 43.173,388.645 137.233,367.516 234.600 C 357.940 278.729,327.070 321.943,290.000 343.113 C 289.230 343.552,286.980 344.855,285.000 346.008 C 236.998 373.951,173.490 375.317,123.600 349.478 C 88.624 331.363,58.914 299.848,44.679 265.758 C 40.911 256.735,37.670 247.191,35.797 239.600 C 35.227 237.290,34.602 234.770,34.409 234.000 C 34.215 233.230,33.609 229.810,33.061 226.400 C 29.764 205.874,29.691 190.567,32.792 170.000 C 33.129 167.763,33.449 166.080,34.691 160.000 C 45.076 109.171,86.998 58.994,134.600 40.419 C 135.920 39.904,137.540 39.259,138.200 38.985 C 141.910 37.447,149.567 34.837,154.400 33.464 C 164.737 30.527,177.101 28.334,188.400 27.433 C 192.197 27.130,217.145 27.561,220.000 27.979 M185.800 117.798 C 163.648 121.305,153.709 136.134,158.050 159.200 C 158.986 164.179,160.022 167.640,163.017 175.800 C 166.659 185.722,166.622 184.391,163.300 185.945 C 145.743 194.158,134.213 204.475,129.807 215.917 C 119.308 243.176,133.932 268.391,164.800 276.251 C 173.428 278.448,188.734 277.019,197.400 273.208 C 197.840 273.014,199.370 272.354,200.800 271.741 C 204.623 270.102,209.930 267.288,212.101 265.748 C 214.507 264.042,213.910 263.901,219.177 267.420 C 240.172 281.447,257.658 279.032,272.752 260.020 C 275.136 257.017,275.134 257.028,273.623 255.207 L 272.468 253.813 270.134 256.028 C 262.435 263.333,256.328 265.674,244.800 265.740 C 236.719 265.786,231.700 263.713,224.852 257.501 C 222.839 255.674,222.832 255.962,224.947 253.464 C 231.820 245.342,239.219 232.151,243.479 220.422 C 245.352 215.267,247.244 209.392,248.445 205.000 C 251.236 194.797,255.086 191.270,264.600 190.204 C 268.511 189.765,268.400 189.854,268.400 187.173 L 268.400 184.800 245.381 184.800 L 222.362 184.800 222.481 187.292 L 222.600 189.783 226.600 190.263 C 236.970 191.507,239.009 193.438,238.987 202.000 C 238.955 214.709,230.695 235.894,221.013 248.100 C 218.668 251.056,219.084 251.248,214.459 245.078 C 202.250 228.792,186.792 202.299,180.472 186.828 C 179.452 184.331,179.420 184.385,182.600 183.218 C 195.052 178.649,210.340 168.834,214.357 162.830 C 229.062 140.851,211.830 113.678,185.800 117.798 M196.328 124.796 C 208.187 129.370,213.013 142.635,207.679 156.000 C 204.664 163.558,197.448 169.796,184.293 176.218 C 176.203 180.167,177.029 181.072,172.227 163.000 C 166.689 142.160,171.089 128.514,184.600 124.622 C 185.920 124.242,187.180 123.871,187.400 123.797 C 189.151 123.211,193.470 123.694,196.328 124.796 M169.988 193.200 C 172.065 198.195,180.327 214.607,184.790 222.600 C 191.004 233.730,199.302 245.859,207.739 256.145 C 210.199 259.144,210.204 259.211,208.066 260.553 C 185.728 274.571,157.004 267.900,145.693 246.067 C 134.337 224.148,140.877 204.065,163.206 192.291 C 168.436 189.533,168.465 189.536,169.988 193.200 M371.467 367.867 C 371.392 367.941,344.526 367.957,311.765 367.901 L 252.200 367.800 256.600 366.341 C 267.821 362.620,278.439 357.872,289.000 351.854 C 310.018 339.877,328.894 323.224,343.239 304.000 C 346.391 299.775,352.400 291.035,352.400 290.673 C 352.400 290.589,353.408 288.849,354.639 286.806 C 356.651 283.469,363.200 270.825,363.200 270.279 C 363.200 270.158,363.803 268.740,364.540 267.129 C 365.276 265.518,366.372 262.850,366.974 261.200 C 367.575 259.550,368.399 257.300,368.803 256.200 C 369.208 255.100,369.837 253.210,370.200 252.000 C 370.564 250.790,370.983 249.530,371.131 249.200 C 371.279 248.870,371.446 275.404,371.501 308.165 C 371.557 340.926,371.541 367.792,371.467 367.867 " stroke="none" fill="#060606" fill-rule="evenodd"></path><path id="path1" d="M0.000 200.000 L 0.000 400.000 200.000 400.000 L 400.000 400.000 400.000 200.000 L 400.000 0.000 200.000 0.000 L 0.000 0.000 0.000 200.000 M184.220 20.379 C 184.458 20.616,186.022 20.620,188.400 20.390 C 207.899 18.501,236.067 21.918,256.200 28.613 C 294.307 41.285,327.107 66.247,348.951 99.200 C 357.116 111.518,365.651 128.534,368.814 138.800 C 368.983 139.350,369.777 141.864,370.578 144.386 C 372.071 149.089,373.888 155.940,374.773 160.200 C 375.727 164.789,375.978 166.225,376.594 170.600 C 376.935 173.020,377.306 175.630,377.419 176.400 C 378.622 184.620,379.046 198.893,378.353 207.881 C 378.021 212.190,378.023 213.899,378.360 214.539 C 378.695 215.174,378.785 236.333,378.707 295.200 L 378.600 375.000 297.842 375.101 C 246.606 375.165,216.915 375.061,216.621 374.817 C 216.326 374.573,214.858 374.570,212.579 374.809 C 198.020 376.341,174.104 374.081,156.800 369.540 C 154.270 368.876,151.660 368.194,151.000 368.025 C 126.520 361.755,96.118 343.679,75.607 323.198 C 68.108 315.710,63.020 309.640,54.987 298.600 C 53.767 296.923,47.600 287.225,47.600 286.983 C 47.600 286.874,47.122 286.027,46.538 285.102 C 44.629 282.077,38.914 270.321,36.629 264.716 C 31.288 251.616,27.723 238.761,25.559 224.800 C 23.792 213.407,23.873 218.184,23.721 116.300 L 23.577 20.000 103.709 20.000 C 153.609 20.000,183.983 20.143,184.220 20.379 M30.406 86.300 C 30.410 123.765,30.554 145.620,30.800 146.000 C 31.135 146.519,31.189 146.509,31.194 145.932 C 31.207 144.483,35.989 131.406,38.678 125.467 C 59.496 79.483,98.086 44.453,145.000 28.956 L 150.200 27.238 90.300 27.219 L 30.400 27.200 30.406 86.300 M188.400 27.433 C 177.101 28.334,164.737 30.527,154.400 33.464 C 149.567 34.837,141.910 37.447,138.200 38.985 C 137.540 39.259,135.920 39.904,134.600 40.419 C 102.494 52.948,71.256 81.054,51.897 114.830 C 44.888 127.060,37.411 146.688,34.691 160.000 C 33.449 166.080,33.129 167.763,32.792 170.000 C 29.691 190.567,29.764 205.874,33.061 226.400 C 33.609 229.810,34.215 233.230,34.409 234.000 C 34.602 234.770,35.227 237.290,35.797 239.600 C 37.670 247.191,40.911 256.735,44.679 265.758 C 45.056 266.661,46.913 270.460,48.806 274.200 C 85.847 347.382,168.693 383.774,247.800 361.611 C 260.023 358.186,274.538 352.098,285.000 346.008 C 286.980 344.855,289.230 343.552,290.000 343.113 C 323.578 323.937,353.204 285.280,364.732 245.600 C 393.684 145.946,328.224 43.810,225.800 28.827 C 224.260 28.602,221.650 28.220,220.000 27.979 C 217.145 27.561,192.197 27.130,188.400 27.433 M195.000 117.786 C 222.769 122.865,229.090 155.231,205.428 171.179 C 199.291 175.315,188.206 181.161,182.600 183.218 C 179.420 184.385,179.452 184.331,180.472 186.828 C 186.792 202.299,202.250 228.792,214.459 245.078 C 219.084 251.248,218.668 251.056,221.013 248.100 C 230.695 235.894,238.955 214.709,238.987 202.000 C 239.009 193.438,236.970 191.507,226.600 190.263 L 222.600 189.783 222.481 187.292 L 222.362 184.800 245.381 184.800 L 268.400 184.800 268.400 187.173 C 268.400 189.854,268.511 189.765,264.600 190.204 C 255.086 191.270,251.236 194.797,248.445 205.000 C 247.244 209.392,245.352 215.267,243.479 220.422 C 239.219 232.151,231.820 245.342,224.947 253.464 C 222.832 255.962,222.839 255.674,224.852 257.501 C 231.700 263.713,236.719 265.786,244.800 265.740 C 256.328 265.674,262.435 263.333,270.134 256.028 L 272.468 253.813 273.623 255.207 C 275.134 257.028,275.136 257.017,272.752 260.020 C 257.658 279.032,240.172 281.447,219.177 267.420 C 213.910 263.901,214.507 264.042,212.101 265.748 C 209.930 267.288,204.623 270.102,200.800 271.741 C 199.370 272.354,197.840 273.014,197.400 273.208 C 188.734 277.019,173.428 278.448,164.800 276.251 C 133.932 268.391,119.308 243.176,129.807 215.917 C 134.213 204.475,145.743 194.158,163.300 185.945 C 166.622 184.391,166.659 185.722,163.017 175.800 C 154.291 152.024,155.128 137.141,165.784 126.600 C 172.348 120.107,185.687 116.083,195.000 117.786 M187.400 123.797 C 187.180 123.871,185.920 124.242,184.600 124.622 C 171.089 128.514,166.689 142.160,172.227 163.000 C 175.697 176.061,176.785 179.032,178.046 178.901 C 181.475 178.544,196.562 169.667,201.348 165.189 C 214.678 152.720,211.957 130.823,196.328 124.796 C 193.470 123.694,189.151 123.211,187.400 123.797 M167.406 190.315 C 166.969 190.414,165.079 191.303,163.206 192.291 C 140.877 204.065,134.337 224.148,145.693 246.067 C 156.307 266.554,183.624 274.132,204.800 262.465 C 210.535 259.305,210.461 259.464,207.739 256.145 C 199.302 245.859,191.004 233.730,184.790 222.600 C 180.327 214.607,172.065 198.195,169.988 193.200 C 168.894 190.568,168.454 190.077,167.406 190.315 M371.131 249.200 C 370.983 249.530,370.564 250.790,370.200 252.000 C 369.837 253.210,369.208 255.100,368.803 256.200 C 368.399 257.300,367.575 259.550,366.974 261.200 C 366.372 262.850,365.276 265.518,364.540 267.129 C 363.803 268.740,363.200 270.158,363.200 270.279 C 363.200 270.825,356.651 283.469,354.639 286.806 C 353.408 288.849,352.400 290.589,352.400 290.673 C 352.400 291.035,346.391 299.775,343.239 304.000 C 321.715 332.844,291.032 354.922,256.600 366.341 L 252.200 367.800 311.765 367.901 C 344.526 367.957,371.392 367.941,371.467 367.867 C 371.541 367.792,371.557 340.926,371.501 308.165 C 371.446 275.404,371.279 248.870,371.131 249.200 " stroke="none" fill="#fbfbfb" fill-rule="evenodd"></path></g></svg>