<svg id="svg" xmlns="http://www.w3.org/2000/svg" xmlns:xlink="http://www.w3.org/1999/xlink" width="400" height="400" viewBox="0, 0, 400,400"><g id="svgg"><path id="path0" d="M23.637 117.372 C 23.852 203.534,24.016 215.749,25.042 222.025 C 38.278 302.954,95.747 360.419,176.554 373.527 C 182.800 374.541,195.458 374.711,281.207 374.939 L 378.755 375.198 378.490 277.652 C 378.255 191.053,378.093 179.285,377.046 172.786 C 364.097 92.351,306.218 34.542,225.577 21.503 C 219.344 20.495,206.511 20.322,120.933 20.089 L 23.393 19.824 23.637 117.372 M141.385 30.229 C 91.833 47.855,51.407 88.280,33.781 137.833 L 30.622 146.714 30.586 86.856 L 30.551 26.998 90.409 27.034 L 150.266 27.070 141.385 30.229 M225.933 28.781 C 354.262 48.282,414.660 196.237,336.866 300.533 C 270.145 389.982,131.986 389.982,65.266 300.533 C -15.592 192.130,52.637 39.777,187.567 27.437 C 194.209 26.829,218.746 27.689,225.933 28.781 M182.686 118.324 C 158.151 123.648,151.390 142.698,162.663 174.744 L 166.094 184.498 161.378 186.807 C 124.811 204.709,115.037 237.975,139.223 262.209 C 157.023 280.045,183.756 282.054,209.055 267.458 L 214.559 264.283 218.647 267.052 C 239.460 281.146,257.678 278.923,272.229 260.516 C 274.877 257.166,274.911 257.047,273.705 255.441 L 272.469 253.796 269.446 256.579 C 256.827 268.192,237.950 268.969,225.693 258.380 L 222.967 256.024 227.194 250.392 C 235.611 239.176,241.501 227.269,246.166 212.036 C 249.978 199.588,250.574 198.111,252.931 195.250 C 255.199 192.499,258.986 190.880,265.187 190.010 C 268.455 189.552,268.561 189.461,268.561 187.131 L 268.561 184.725 245.471 184.725 L 222.380 184.725 222.380 187.126 L 222.380 189.526 227.295 190.256 C 240.871 192.271,242.463 200.016,234.175 223.729 C 230.705 233.658,221.209 249.734,218.814 249.734 C 215.936 249.734,197.303 220.688,186.714 199.697 C 178.602 183.616,178.804 184.563,183.126 182.941 C 198.936 177.009,212.127 167.467,216.343 158.914 C 227.700 135.875,208.502 112.722,182.686 118.324 M196.238 124.728 C 211.156 129.811,214.586 152.021,202.343 164.264 C 197.549 169.058,180.880 179.041,177.669 179.041 C 176.859 179.041,173.364 168.384,171.494 160.213 C 165.903 135.775,177.951 118.497,196.238 124.728 M174.687 202.917 C 185.889 225.626,192.995 237.318,204.536 252.031 L 210.239 259.302 207.251 261.052 C 170.097 282.813,125.824 246.666,144.371 209.714 C 147.808 202.866,166.022 187.811,168.216 190.004 C 168.326 190.114,171.238 195.925,174.687 202.917 M371.581 308.348 L 371.581 368.028 311.723 367.993 L 251.865 367.957 260.746 364.798 C 310.363 347.149,351.880 305.488,368.505 256.665 C 370.001 252.271,371.306 248.674,371.403 248.672 C 371.501 248.670,371.581 275.524,371.581 308.348 " stroke="none" fill="#FFFFFF" fill-rule="evenodd"></path></g></svg>